<?xml version="1.0" standalone="no"?>
<!DOCTYPE svg PUBLIC "-//W3C//DTD SVG 1.1//EN" "http://www.w3.org/Graphics/SVG/1.1/DTD/svg11.dtd" >
<svg xmlns="http://www.w3.org/2000/svg">
<metadata></metadata>
<defs>
<font id="ddaftt-lowercaddafttlowercase" horiz-adv-x="1201" >
<font-face units-per-em="2048" ascent="1638" descent="-410" />
<missing-glyph horiz-adv-x="512" />
<glyph horiz-adv-x="2048" />
<glyph horiz-adv-x="2048" />
<glyph unicode="&#xd;" horiz-adv-x="2048" />
<glyph unicode=" "  horiz-adv-x="512" />
<glyph unicode="&#x09;" horiz-adv-x="512" />
<glyph unicode="&#xa0;" horiz-adv-x="512" />
<glyph unicode="!" horiz-adv-x="602" d="M-35 1370l201 -942l182 18l-2 963zM111 328l32 -314l314 33l-33 315z" />
<glyph unicode="&#x22;" horiz-adv-x="759" d="M77 1365h242l-36 -568h-171zM439 1365h242l-35 -568h-171z" />
<glyph unicode="#" d="M70 421l35 199h218l27 154h-214l34 198h215l69 393h199l-69 -393h157l69 393h201l-69 -393h190l-35 -198h-190l-27 -154h193l-35 -199h-193l-74 -421h-202l74 421h-156l-75 -421h-198l74 421h-218zM522 620h157l27 154h-157z" />
<glyph unicode="$" d="M48 387l275 63q47 -177 258 -177q102 0 152.5 39t50.5 94q0 56 -45 87t-176 57q-284 59 -366.5 158.5t-82.5 232.5q0 156 104 266.5t269 130.5v158h161v-156q308 -29 403 -295l-252 -84q-51 150 -217 150q-176 0 -176 -114q0 -46 33 -77.5t149 -54.5q194 -39 284.5 -79 t152 -129t61.5 -199q0 -152 -109 -274.5t-329 -143.5v-190h-161v189q-361 38 -439 348z" />
<glyph unicode="%" horiz-adv-x="1411" d="M-87 1161.5q-9 -65.5 1 -139.5t38 -134.5t69.5 -101.5t98 -61t124.5 -10q67 8 115.5 42t77 86t37.5 117.5t-1 139.5t-37.5 135t-69.5 102t-97.5 60.5t-123.5 11.5q-67 -10 -115 -44t-78 -86t-39 -117.5zM94.5 1228q14.5 50 69.5 58q53 8 81.5 -38t49.5 -177 q16 -121 0 -172t-70 -59q-55 -9 -83.5 38.5t-45.5 172.5q-16 127 -1.5 177zM248 35l147 20l561 1458l-151 -20zM732 587.5q-9 -65.5 1 -139t38 -135t69 -102.5t96 -60.5t123 -9.5q67 9 116.5 42.5t79 84.5t39 117t-1.5 141q-10 74 -37.5 134.5t-69.5 102.5t-97.5 61.5 t-123 9t-115.5 -44t-78 -85t-39 -117zM903 588q0 45 9.5 71.5t26.5 38t42 15.5q55 8 85 -39t48 -178q16 -117 0 -170.5t-69.5 -61.5t-84 39t-47.5 170q-10 70 -10 115z" />
<glyph unicode="&#x26;" horiz-adv-x="1470" d="M98 395q31 269 379 359q-67 104 -86 164q-16 63 -10 118q16 148 138 222.5t312 54.5q99 -10 171.5 -43t119.5 -83t67.5 -114.5t12.5 -138.5q-24 -223 -291 -303l168 -228q92 80 150 256l276 -67q-71 -221 -266 -410q53 -67 133 -78q10 -2 33 -2h49l-24 -239 q-35 -4 -70 -5t-70 3q-180 18 -278 155q-205 -125 -441 -98q-262 25 -374 166q-113 143 -99 311zM442 381q-8 -80 41 -144.5t148 -76.5q127 -13 233 57l-243 338q-166 -39 -179 -174zM682 1016q-6 -58 59 -139l52 -64q151 37 161 141q7 58 -29 101t-104 51q-57 6 -96 -19.5 t-43 -70.5z" />
<glyph unicode="'" horiz-adv-x="397" d="M77 1365h242l-36 -568h-171z" />
<glyph unicode="(" horiz-adv-x="600" d="M-8 510q47 -442 370 -813l220 22q-271 353 -320 826q-49 461 146 872l-218 -24q-247 -420 -198 -883z" />
<glyph unicode=")" horiz-adv-x="600" d="M-139 1360q284 -348 348 -815q65 -467 -115 -875l215 31q234 426 168 887q-61 438 -399 803z" />
<glyph unicode="*" d="M148 962l79 219l278 -121l-26 305h239l-30 -305l293 121l72 -219l-300 -71l199 -225l-199 -139l-156 262l-155 -262l-201 139l201 225z" />
<glyph unicode="+" horiz-adv-x="1200" d="M154 567l395 -43l-43 -407l219 -23l43 408l395 -41l23 217l-395 43l43 407l-220 25l-43 -410l-393 41z" />
<glyph unicode="," horiz-adv-x="527" d="M108 0v310h310v-280l-200 -349h-110l155 319h-155z" />
<glyph unicode="-" horiz-adv-x="526" d="M68 408l475 -52l22 217l-475 50z" />
<glyph unicode="." horiz-adv-x="527" d="M109 0v309h309v-309h-309z" />
<glyph unicode="/" horiz-adv-x="1096" d="M-94 -352l198 20l789 1800l-199 -22z" />
<glyph unicode="0" horiz-adv-x="1200" d="M-6 684q-41 320 43 514q108 221 364 258q254 37 420 -147q166 -179 207 -473q23 -148 4.5 -277t-71.5 -240q-113 -221 -367 -253q-250 -37 -414 139q-178 190 -186 479zM279.5 956.5q3.5 -92.5 19.5 -221.5q18 -131 44 -221t54 -137q62 -94 168 -80q109 16 140 121 q34 133 -3 360q-18 142 -43.5 233t-54.5 138q-61 94 -168 80q-112 -15 -143 -125q-17 -55 -13.5 -147.5z" />
<glyph unicode="1" d="M90 0v250h414v781q-244 -148 -380 -204v281q354 104 462 278h232v-1136h378v-250h-1106z" />
<glyph unicode="2" horiz-adv-x="1200" d="M-37 90l1012 -160l65 265l-645 102q389 156 547 276q160 123 186 301q29 177 -81 320q-109 145 -347 184q-428 68 -589 -364l266 -107q74 252 272 221q86 -14 128 -72.5t30 -135.5q-8 -54 -48 -106t-116 -108.5t-188.5 -121t-268.5 -140.5q-63 -32 -108 -54.5t-74 -39.5z " />
<glyph unicode="3" d="M36 395l290 42q42 -212 244 -212q94 0 152.5 50t58.5 134q0 89 -53.5 133t-204.5 44h-125v239h144q123 0 167 51t44 109q0 65 -48.5 115.5t-135.5 50.5q-166 0 -209 -175l-283 45q35 158 169.5 261.5t331.5 103.5q206 0 346.5 -98t140.5 -268q0 -223 -234 -305 q275 -73 275 -324q0 -180 -140.5 -296t-387.5 -116q-237 0 -375.5 119.5t-166.5 296.5z" />
<glyph unicode="4" horiz-adv-x="1200" d="M-31 557l33 -238l592 82l43 -311l315 43l-43 313l189 27l-33 238l-188 -27l-117 823l-361 -51zM209 590l291 629l4 -56q2 -20 4 -35.5t4 -29.5l63 -457z" />
<glyph unicode="5" horiz-adv-x="1200" d="M35 455q41 -398 471 -465q248 -39 407 69q160 115 193 322q31 192 -80 330q-106 139 -291 170q-180 28 -305 -70l70 297l587 -92l80 270l-850 135l-174 -755l252 -84q84 94 207 71q45 -6 82 -28.5t61.5 -56t33.5 -74.5t3 -84q-6 -41 -27.5 -76t-54 -59.5t-74.5 -35 t-91 -1.5q-179 26 -197 213z" />
<glyph unicode="6" d="M80 664q0 314 141.5 518t419.5 204q201 0 323 -105.5t152 -259.5l-275 -74q-39 210 -204 210q-240 0 -240 -456q97 156 306 156q191 0 312 -124.5t121 -294.5q0 -181 -133.5 -320t-356.5 -139q-220 0 -347.5 113t-173 269t-45.5 303zM413 421q0 -91 58 -152t147 -61 q87 0 145 58.5t58 165.5q0 95 -62.5 150.5t-139.5 55.5q-81 0 -143.5 -60t-62.5 -157z" />
<glyph unicode="7" horiz-adv-x="1200" d="M-2 1374l4 -284l690 71q-43 -53 -80 -107.5t-71.5 -115.5t-65.5 -133t-61 -162q-29 -88 -45.5 -167t-24.5 -146q-12 -133 0 -293l365 37q-4 32 -8.5 58t-6.5 42q-6 59 -5 137t9 178q17 201 105 416q45 111 87 192t83 134l-27 242z" />
<glyph unicode="8" d="M59 368q0 215 244 304q-198 110 -198 311q0 167 131.5 285t367.5 118q226 0 358.5 -102t132.5 -258q0 -199 -206 -289q253 -105 253 -336q0 -184 -145 -303t-418 -119q-252 0 -386 109.5t-134 279.5zM347 380q0 -85 66 -133.5t186 -48.5q104 0 169 37.5t65 110.5 q0 57 -46.5 104t-269.5 120q-170 -50 -170 -190zM410 1032q0 -61 48 -104.5t221 -101.5q138 42 138 174q0 80 -57.5 130t-164.5 50q-87 0 -136 -41.5t-49 -106.5z" />
<glyph unicode="9" horiz-adv-x="1200" d="M51 393q35 -340 393 -397q277 -43 447 139q174 182 219 486q16 102 14 195t-20 179q-41 174 -148.5 266.5t-271.5 118.5q-227 37 -380.5 -67.5t-184.5 -302.5q-27 -185 69 -318q101 -135 279 -162q188 -30 324 93q-48 -279 -127.5 -344.5t-169.5 -51.5q-142 23 -156 172z M422 981q6 39 26.5 74t52 59.5t70.5 35.5t82 5t78 -29.5t57.5 -55.5t30.5 -72t2 -78.5t-26.5 -73.5t-52 -58.5t-71.5 -35t-85 -5t-79 29t-55.5 55t-28.5 70.5t-1 79z" />
<glyph unicode=":" horiz-adv-x="526" d="M2 1032l33 -301l307 31l-33 303zM76 336l33 -307l307 30l-33 308z" />
<glyph unicode=";" horiz-adv-x="527" d="M108 -4v310h310v-280l-200 -350h-110l155 320h-155zM108 709v301h310v-301h-310z" />
<glyph unicode="&#x3c;" d="M137 567v236l887 458v-280l-589 -297l589 -297v-278z" />
<glyph unicode="=" d="M95 382v219h1012v-219h-1012zM95 758v218h1012v-218h-1012z" />
<glyph unicode="&#x3e;" d="M177 109v280l589 296l-589 298v278l887 -458v-237z" />
<glyph unicode="?" horiz-adv-x="1045" d="M27 932q31 226 165.5 342t328.5 116q198 0 332 -114t134 -289q0 -217 -223 -363q-97 -64 -117.5 -100t-20.5 -133h-258v38q0 182 28.5 229.5t150.5 137.5q64 47 89 87.5t25 100.5q0 74 -47 116.5t-114 42.5q-177 0 -199 -250zM362 0v302h314v-302h-314z" />
<glyph unicode="@" horiz-adv-x="1591" d="M79 678q0 310 217 519t526 209q295 0 492 -184.5t197 -443.5q0 -205 -120.5 -350t-286.5 -145q-113 0 -171 87q-76 -91 -185 -91q-120 0 -206 103t-86 271q0 172 96.5 281t232.5 109q87 0 158 -59l12 43h189l-55 -451q-5 -45 -5 -78q0 -44 39 -44q70 0 138 91t68 229 q0 202 -146 334.5t-358 132.5q-229 0 -387 -162t-158 -402q0 -222 147.5 -387t415.5 -165q73 0 168.5 16.5t259.5 99.5l66 -165q-240 -125 -494 -125q-223 0 -391.5 89.5t-270.5 261.5t-102 376zM656 646q0 -74 28.5 -124t77.5 -50q63 0 115 64.5t52 169.5q0 56 -38.5 100 t-93.5 44q-61 0 -101 -56t-40 -148z" />
<glyph unicode="A" horiz-adv-x="1110" d="M92 252q12 98 73.5 171t178.5 103q85 21 250 21q75 0 166 -4l8 57q2 15 2 28q0 119 -129 136q-17 2 -33 2q-128 0 -159 -129l-271 59q51 170 191 224q105 39 226 39q43 0 89 -5q104 -14 190.5 -48t131.5 -89q45 -49 55 -108q5 -23 6 -61q0 -6 -1 -13q-1 -47 -11 -113 l-56 -456q-8 -66 -9 -111v-10q0 -39 7 -66l-286 35q-2 20 -2 45q0 49 8 113q-86 -100 -168 -124q-54 -16 -112 -16q-31 0 -64 5q-70 8 -125 34.5t-93 68.5q-39 42 -55 95q-11 36 -11 76q0 20 3 41zM410 246q-1 -11 -2 -21q0 -40 23 -73q28 -41 89 -48q12 -2 24 -2 q26 0 51 10q36 14 63.5 41t47 66t25.5 86l12 90h-23q-293 0 -310 -149z" />
<glyph unicode="B" horiz-adv-x="1114" d="M123 -6l94 1360l299 -21l-33 -481q81 130 232 130q13 0 26 -1q86 -6 154 -47t111 -111.5t62 -170.5q13 -70 14 -150q0 -34 -3 -70q-15 -238 -129 -372q-103 -122 -275 -122q-17 0 -34 1q-106 6 -164 45q-63 32 -119 147q-30 -25 -75 -149zM449 369q-2 -19 -2 -36 q0 -79 34 -126q41 -57 103 -62h5q68 0 120 58q53 65 65 250q5 57 5 104q0 125 -34 168q-45 61 -108 63q-8 1 -15 1q-62 1 -104 -53q-47 -60 -55 -173z" />
<glyph unicode="C" horiz-adv-x="1049" d="M66 500q0 -236 133 -379q135 -139 350 -139q98 0 179 28.5t141.5 80.5t96 125t46.5 163l-279 16q-26 -174 -166 -174q-69 0 -121 51q-49 52 -49 246q0 291 178 291q142 0 158 -182l279 14q-15 168 -135.5 278.5t-307.5 110.5q-229 0 -366 -147q-137 -146 -137 -383z" />
<glyph unicode="D" horiz-adv-x="1110" d="M88 498q-8 68 -8 128q0 166 59 276q80 150 267 169q17 2 34 2q135 0 226 -102l-50 461l289 28l142 -1358l-273 -28l-16 157q-82 -186 -258 -204q-20 -2 -40 -2q-142 0 -238 108q-110 123 -134 365zM395 526q29 -281 172 -281q9 0 19 1q61 6 102 64q33 47 33 120 q0 18 -2 37l-21 190q-23 223 -152 223q-8 0 -16 -1q-140 -16 -141 -252q1 -46 6 -101z" />
<glyph unicode="E" horiz-adv-x="1024" d="M29 487q16 244 164 379q134 124 321 125q20 0 41 -2q98 -8 179 -47t145 -113q111 -130 111 -368q0 -39 -3 -80l-645 45q-4 -16 -4 -25q0 -14 -2 -20q-2 -17 -2 -33q0 -87 46 -135q54 -57 134 -63q8 0 16 -1q134 0 175 146l268 -37q-129 -315 -437 -315q-23 0 -47 2 q-106 6 -193 46t-148.5 109.5t-93.5 167.5q-26 83 -26 181q0 19 1 38zM350 600l359 -25q0 207 -154 220q-9 1 -18 1q-152 0 -187 -196z" />
<glyph unicode="F" horiz-adv-x="811" d="M43 1004l117 16q-15 102 -15 166q0 36 5 61q12 74 86 142q77 67 223 86q28 4 62 6t75 4l33 -228q-33 -4 -58.5 -5t-48.5 -5q-60 -10 -76 -43q-9 -19 -10 -49q0 -24 6 -55l4 -39l181 24l32 -229l-180 -25l109 -770l-289 -41l-109 771l-114 -17z" />
<glyph unicode="G" horiz-adv-x="1133" d="M-33 -29q10 113 160 152q-119 64 -119 175v11q10 142 213 213q-167 78 -167 239q0 10 1 19q8 142 134 222q112 70 301 70q24 0 49 -1q69 -4 133.5 -18.5t128.5 -40.5q8 41 22.5 76.5t34.5 64.5q40 45 141 45q20 0 41 -2q19 0 39.5 -3t42.5 -7l-8 -191q-24 9 -43.5 12 t-36.5 5h-12q-87 0 -109 -84q72 -76 72 -189v-6q-10 -143 -133 -222q-107 -69 -289 -69q-28 0 -57 2q-82 2 -156 25q-55 -31 -55 -76q-4 -26 7 -43.5t32 -27.5q22 -9 71.5 -18t135.5 -17q116 -13 194 -25t123 -22q86 -21 144 -90q53 -64 53 -143v-11q-6 -117 -142 -213 q-116 -75 -357 -75q-48 0 -101 3q-310 15 -414 88q-74 65 -74 158v14zM207 -13q0 -53 82 -71q43 -10 94 -16t109 -11q50 -3 91 -3q82 0 125 14q62 20 66 69q0 23 -51 41q-33 21 -272 33l-60 4q-2 2 -26 2h-21q-4 0 -10 1t-17 3q-2 2 -18 2q-14 0 -16 2q-9 0 -21 -5 t-24.5 -14t-21.5 -21.5t-9 -29.5zM354 768v-11q0 -141 158 -151h14q70 0 114 38q48 42 52 106v11q0 54 -37 98q-41 48 -127 52h-14q-67 0 -110 -35q-46 -40 -50 -108z" />
<glyph unicode="H" horiz-adv-x="1114" d="M123 20v1366h289v-493q82 160 272 160q104 0 174 -45q37 -23 62.5 -50.5t41 -64.5t22.5 -87t7 -118v-668h-297v570q0 106 -8 139q-8 39 -36.5 64.5t-71.5 25.5q-58 0 -111 -45q-55 -43 -55 -184v-570h-289z" />
<glyph unicode="I" horiz-adv-x="631" d="M123 -10l104 1001l297 -30l-104 -1004zM238 1077l30 295l297 -31l-30 -294z" />
<glyph unicode="J" horiz-adv-x="666" d="M-47 -307q49 -12 87 -19.5t66 -11.5q33 -4 64 -4q167 0 238 113q43 61 51 127.5t12 138.5l102 950l-301 33l-100 -948q-10 -99 -40 -132q-23 -26 -66 -26q-13 0 -27 2q-10 0 -25.5 3t-38.5 7zM281 1100l301 -31l32 301l-303 31z" />
<glyph unicode="K" horiz-adv-x="1112" d="M-68 1370l189 -1354l278 39l-34 256l145 224l272 -424l326 45l-418 616l238 379l-285 -41l-244 -383q-16 -20 -39 -68l-36 -61l-115 811z" />
<glyph unicode="L" horiz-adv-x="543" d="M-20 1372l143 -1360l297 33l-144 1358z" />
<glyph unicode="M" horiz-adv-x="1688" d="M51 135l285 -45l88 553q10 70 26.5 113t40 66.5t53.5 29.5q15 3 31.5 3t34.5 -3q45 -8 74 -35q29 -29 31 -63q4 -17 1 -57t-14 -99l-86 -551l293 -47l88 551q25 166 82 190q43 21 82 21q12 0 23 -2q51 -6 73 -35q25 -25 29 -63v-7q0 -35 -16 -147l-88 -551l293 -47 l102 647q16 90 16 151q0 48 -10 78q-20 72 -84.5 122t-163.5 67q-37 6 -71 6q-156 0 -246 -131q-55 184 -250 215q-37 6 -71 6q-155 0 -234 -133l24 152l-278 43z" />
<glyph unicode="N" horiz-adv-x="1124" d="M86 1014l37 -1010l297 12l-19 566v17q0 216 150 218h7q39 0 71 -22q30 -27 39 -64q10 -37 14 -141l20 -565l299 10l-22 649q-4 115 -28.5 189.5t-71.5 109.5q-89 72 -227 72h-7q-41 -2 -75.5 -11.5t-68.5 -31t-67 -60.5t-65 -100l-4 170z" />
<glyph unicode="O" horiz-adv-x="1096" d="M66 545q0 -232 129 -381q129 -148 346 -148q225 0 356 150q135 149 135 375q0 227 -131 377q-129 151 -358 151q-115 -2 -203 -40t-148.5 -106.5t-92 -163.5t-33.5 -214zM379 549q0 194 43 259.5t129 65.5q84 0 125 -71q43 -72 43 -271q0 -184 -47 -253q-47 -66 -123 -66 q-88 0 -129 78t-41 258z" />
<glyph unicode="P" horiz-adv-x="1106" d="M-18 1018l188 -1337l285 40l-64 447q76 -98 204 -98q27 0 56 4q170 22 255 170q59 103 59 262q0 69 -11 149q-18 125 -58 216.5t-98 148.5q-58 56 -130 80q-47 16 -100 16q-27 0 -54 -4q-186 -25 -240 -203l-22 146zM322 752q8 45 26.5 75.5t45 48t55.5 21.5q10 1 20 1 q138 0 178 -275q13 -93 13 -158q0 -84 -21 -123q-37 -66 -100 -76q-9 -1 -18 -1q-40 0 -77 22q-43 26 -65 63q-17 37 -33 146l-20 147q-7 38 -7 69q0 22 3 40z" />
<glyph unicode="Q" horiz-adv-x="1145" d="M98 576q39 245 167 365q102 95 248 95q38 0 79 -6q188 -31 256 -203q59 60 96 127l160 -26q-29 -86 -37 -135l-188 -1194l-287 47l70 436q-92 -87 -203 -87q-26 0 -53 5q-187 27 -267 178q-54 102 -54 247q0 70 13 151zM394 366q1 -63 16 -98q32 -71 104 -80q10 -2 20 -2 q21 0 42 8q32 13 59 39.5t46 66.5t28 89l32 201q5 31 5 59q0 59 -24 101q-36 61 -97 71q-14 3 -27 3q-52 0 -98 -42q-56 -51 -90 -260q-16 -87 -16 -148v-8z" />
<glyph unicode="R" horiz-adv-x="743" d="M94 2l291 -18l29 405q8 94 28.5 155.5t54 96.5t81.5 47q32 8 71 8q19 0 39 -2l23 293q-19 4 -31 5t-23 3h-13q-143 0 -218 -194l10 186l-270 21z" />
<glyph unicode="S" horiz-adv-x="969" d="M10 279q76 -297 461 -297q215 0 333 95t118 255q0 102 -50 174q-47 72 -131 100q-41 17 -104.5 30t-151.5 23q-116 17 -143 37.5t-27 57.5q0 92 150 92q160 0 197 -137l217 57q-52 141 -147 202.5t-257 61.5q-100 0 -179 -24.5t-134.5 -68.5t-84 -104.5t-28.5 -134.5 q0 -141 96 -221q99 -80 404 -117q113 -14 113 -84q0 -45 -51.5 -71.5t-125.5 -26.5q-192 0 -223 137z" />
<glyph unicode="T" horiz-adv-x="872" d="M45 1004l178 18l-6 301l252 45l33 -315l217 22l22 -231l-215 -23l45 -426q4 -39 11.5 -63.5t23.5 -37.5q14 -12 42 -16q11 -1 26 -2q20 0 47 3q20 2 43.5 6t50.5 8l23 -221q-66 -17 -110 -26t-73 -13q-47 -5 -88 -5q-120 0 -182 46q-86 65 -104 248l-50 469l-161 -17z " />
<glyph unicode="U" horiz-adv-x="1192" d="M63 1018l283 39l92 -654q22 -120 106 -120q12 0 25 2q60 8 96.5 46t41.5 75q3 13 3 35q0 35 -8 94l-79 561l295 41l139 -1000l-271 -39l-24 170q-49 -198 -270 -229q-28 -2 -53 -2q-51 0 -89 8q-58 12 -96.5 49t-61 102.5t-36.5 168.5z" />
<glyph unicode="V" horiz-adv-x="977" d="M18 1042l308 -26l139 -654l252 621l221 -20l-432 -971l-232 14z" />
<glyph unicode="W" horiz-adv-x="1477" d="M80 1006l242 -1029l249 -18l203 637l117 -657l262 -19l373 985l-230 17l-213 -609l-106 631l-266 19l-199 -605l-121 627z" />
<glyph unicode="X" horiz-adv-x="1012" d="M-61 1010l335 -435l-274 -575l254 27l168 368l246 -325l338 36l-394 504l240 494l-254 -27l-131 -286l-191 253z" />
<glyph unicode="Y" horiz-adv-x="926" d="M-2 999l305 43l277 -567l102 621l215 30l-178 -1003q-17 -86 -30 -144.5t-30 -95.5q-24 -80 -92 -131q-59 -51 -184 -69q-35 -5 -69.5 -7t-75.5 -4l-31 228q22 -1 44 -1q53 0 101 7q43 6 70 18.5t42 30.5t21.5 41.5t10.5 52.5z" />
<glyph unicode="Z" horiz-adv-x="877" d="M41 0h795v217h-469l448 606v187h-737v-203h407l-444 -590v-217z" />
<glyph unicode="[" horiz-adv-x="601" d="M109 -341v1706h430v-128h-198v-1454h198v-124h-430z" />
<glyph unicode="\" horiz-adv-x="1096" d="M55 1365h201l975 -1706h-203z" />
<glyph unicode="]" horiz-adv-x="601" d="M62 -213h198v1454h-198v124h430v-1706h-430v128z" />
<glyph unicode="^" horiz-adv-x="1024" d="M9 685l323 689h360l323 -689h-287l-216 470l-216 -470h-287z" />
<glyph unicode="_" horiz-adv-x="1024" d="M0 -94h1024v-239h-1024v239z" />
<glyph unicode="`" horiz-adv-x="1024" d="M233 1348l76 168l414 -243l-50 -112z" />
<glyph unicode="a" horiz-adv-x="1096" d="M43 721q8 174 135 258q131 86 301 104q47 5 92 5q55 0 105 -8q92 -14 147 -58q54 -41 76 -92q27 -41 39 -182l49 -457q12 -146 37 -187l-285 -28q-22 55 -30 153q-66 -114 -136.5 -156t-166.5 -53q-25 -2 -48 -2q-111 0 -189 54q-95 66 -110 194q-2 19 -2 38q0 76 33 144 q41 84 154 142q53 28 152.5 55t246.5 53l-4 58q-13 133 -133 133q-13 0 -27 -2q-157 -17 -160 -164zM371 332q6 -53 42 -87q31 -29 79 -28h18q78 12 125 80q37 54 37 126q0 18 -2 38l-11 92q-289 -63 -289 -205q0 -8 1 -16z" />
<glyph unicode="b" horiz-adv-x="1241" d="M59 1370l295 41l68 -479q59 158 227 182q27 4 53 4q139 0 239 -105q118 -124 153 -366q9 -67 9 -127q-1 -154 -59 -265q-82 -155 -278 -183q-42 -7 -78 -7q-52 0 -90 15q-72 24 -147 123q-25 -31 -43 -164l-160 -23zM463 647l26 -192q15 -105 66 -153q42 -40 92 -40 q10 0 21 2q71 8 110 82q23 42 23 126q0 56 -10 132q-31 213 -86 260q-43 41 -97 41q-11 0 -22 -2q-72 -9 -106 -77q-23 -45 -23 -110q0 -32 6 -69z" />
<glyph unicode="c" horiz-adv-x="1069" d="M72 489q24 236 178 367q128 113 311 112q33 0 68 -3q186 -19 295 -142q104 -121 104 -285v-6l-278 15v10q0 174 -138 186q-12 1 -23 1q-157 0 -186 -271q-5 -56 -5 -101q0 -107 30 -149q45 -55 115 -63q10 -1 19 -1q120 0 163 158l276 -47q-35 -180 -169 -262 q-106 -65 -254 -65q-38 0 -78 4q-213 20 -334 153q-98 129 -98 310q0 39 4 79z" />
<glyph unicode="d" horiz-adv-x="1106" d="M102 487q16 255 122 389q96 122 260 122q16 0 32 -1q158 -12 238 -145l32 463l287 -21l-94 -1360l-274 19l12 156q-105 -157 -268 -157q-12 0 -23 1q-168 13 -254 153q-73 118 -73 308q0 35 3 73zM410 463q-3 -37 -3 -70q0 -231 142 -241q5 0 11 -1q54 -1 100 47 q50 52 59 150l12 191q2 27 2 51q0 185 -129 194h-13q-158 0 -181 -321z" />
<glyph unicode="e" horiz-adv-x="1116" d="M68 571q-2 25 -2 49q0 209 118 347q133 157 342 166q14 1 28 0q185 0 316 -121q148 -133 160 -430l-647 -33v-27q0 -14 2 -20q5 -111 65 -161q56 -46 128 -46h12q147 6 172 166l268 -2q-92 -357 -440 -373q-18 -1 -36 -1q-87 1 -163 25q-92 30 -160.5 92t-111.5 155.5 t-51 213.5zM375 723l352 18q-17 197 -166 197h-12q-166 -6 -174 -215z" />
<glyph unicode="f" horiz-adv-x="739" d="M39 815l6 232l119 -5q4 78 10 135.5t16 92.5q27 69 111 123q81 48 208 48q15 0 30 -1q26 -2 61 -6t74 -9l-6 -229q-33 2 -58.5 4t-50.5 2h-13q-50 0 -68 -28q-19 -31 -23 -103l-2 -39l184 -6l-8 -231l-185 6l-24 -778l-291 10l27 778z" />
<glyph unicode="g" horiz-adv-x="1133" d="M59 -84q-1 7 -1 15q0 121 161 173q-133 56 -141 172v14q0 133 188 224q-186 61 -198 236q-1 10 -1 20q0 128 107 216q115 95 338 112q27 2 53 2q110 0 215 -27q4 84 39 144q39 57 174 67q11 2 21 2h22q11 0 21 -1t20 -3l15 -188q-48 6 -80 6q-99 -8 -109 -96 q86 -80 92 -187q1 -13 1 -25q0 -126 -104 -212q-114 -93 -337 -109q-23 -2 -46 -2q-17 0 -34 1q-39 3 -78 7q-47 -33 -45 -82q4 -51 47 -65q43 -11 170 -11h41q58 1 106 1q146 0 214 -7q43 -4 83 -22.5t70.5 -49t49 -70.5t22.5 -85v-17q0 -127 -113 -225 q-116 -104 -446 -127q-81 -6 -149 -6q-188 0 -271 45q-110 56 -117 160zM315 -20q2 -68 93 -78q45 -4 95 -5h20q42 0 89 3q154 10 214 36q55 25 55 70v6q0 37 -58 56q-25 7 -94 7t-180 -7l-60 -5q-46 -5 -64 -5q-6 0 -9 1q-6 2 -19 2h-16q-8 0 -20.5 -7t-23.5 -18t-17 -26 q-5 -12 -5 -23v-7zM367 774q9 -142 153 -142q11 0 23 1q80 6 122 54q38 43 38 99q0 6 -1 13q-4 59 -50 102q-40 38 -112 38q-9 0 -20 -1q-78 -6 -118 -51q-36 -40 -36 -98q0 -7 1 -15z" />
<glyph unicode="h" horiz-adv-x="1114" d="M123 -6l94 1360l289 -21l-35 -491q88 138 252 138q15 0 31 -1q104 -6 172.5 -55.5t93.5 -120.5q18 -57 18 -145q0 -29 -2 -62l-47 -664l-297 21l41 567q2 51 2 84q0 35 -3 57.5t-10 37t-20 26.5q-24 29 -69 31q-7 1 -14 1q-49 0 -101 -38q-57 -39 -67 -180l-39 -566z" />
<glyph unicode="i" horiz-adv-x="600" d="M70 1403l297 35l39 -291l-300 -37zM117 1024l297 37l123 -1002l-297 -36z" />
<glyph unicode="j" horiz-adv-x="690" d="M96 1397l299 41l43 -297l-301 -43zM125 -119q10 2 20.5 3t18.5 1q20 0 26 2q62 11 84 49q14 24 14 70q0 29 -5 66l-133 946l299 41l133 -944q10 -78 19 -143q2 -17 2 -34q0 -50 -19 -102q-49 -151 -267 -178q-42 -7 -105 -7q-25 0 -54 1z" />
<glyph unicode="k" horiz-adv-x="1112" d="M78 37l280 -6l9 256l184 194l192 -465l328 -14l-303 682l301 330l-289 12l-307 -336q-18 -22 -49 -61l-47 -54l29 820l-281 8z" />
<glyph unicode="l" horiz-adv-x="543" d="M123 0v1365h298v-1365h-298z" />
<glyph unicode="m" horiz-adv-x="1688" d="M51 1016l72 -1008l289 21l-41 557q-3 33 -3 60q0 91 28 130q36 51 110 55h12q38 0 68 -16q32 -20 45 -55q8 -17 13 -55.5t9 -98.5l39 -557l297 21l-39 557q-2 33 -2 60q0 113 39 144q51 39 98 41h9q45 0 71 -18q31 -20 41 -55q13 -33 19 -152l37 -559l299 21l-45 655 q-7 80 -18 136t-30 87q-34 67 -109 101q-64 29 -146 29q-14 0 -29 -1q-209 -16 -279 -194q-89 155 -258 154q-17 0 -35 -1q-213 -16 -270 -192l-10 153z" />
<glyph unicode="n" horiz-adv-x="1124" d="M47 76l297 -47l88 559q33 207 163 207q14 0 28 -2q22 -5 40.5 -14t30.5 -25q25 -29 29 -70q2 -20 -2 -55t-12 -84l-88 -561l294 -47l103 643q11 71 11 128q0 124 -52 183q-72 90 -215 115q-35 5 -67 5h-11q-37 -1 -74 -16.5t-75.5 -47.5t-81.5 -87l26 168l-274 43z" />
<glyph unicode="o" horiz-adv-x="1096" d="M65 507q0 161 58.5 273.5t160.5 181.5t258 69q231 0 360.5 -151t129.5 -378q0 -224 -134.5 -373.5t-357.5 -149.5q-216 0 -345.5 148t-129.5 380zM379 510q0 -179 41 -257t128 -78q76 0 123 66.5t47 253.5q0 199 -41.5 270t-126.5 71t-128 -65.5t-43 -260.5z" />
<glyph unicode="p" horiz-adv-x="1106" d="M37 -262l289 -25l39 453q30 -72 88.5 -107.5t144.5 -46.5q15 -1 30 -1q67 0 126 23q73 27 128.5 88.5t91.5 159t48 228.5q4 45 4 86q0 76 -12 140q-19 98 -62 167.5t-108.5 108.5t-147.5 45q-18 1 -35 1q-76 0 -131 -28q-67 -35 -114 -119l12 148l-272 26zM395 346 q-6 20 -6 57t6 89l15 151q4 64 20 106t41 68.5t53 36.5q24 8 50 8h10q134 -16 134 -237q0 -35 -3 -74q-19 -215 -70 -272q-53 -54 -111 -54h-4q-22 4 -45.5 13.5t-42.5 27.5q-34 41 -47 80z" />
<glyph unicode="q" horiz-adv-x="1143" d="M62 508q-3 36 -3 70q0 199 83 324q98 145 296 159q16 1 32 1q170 0 263 -140q23 34 39 71t29 74l160 10q-5 -45 -6 -79.5t1 -59.5l84 -1206l-288 -21l-31 443q-84 -129 -232 -140q-18 -1 -35 -1q-162 0 -264 117q-112 130 -128 378zM377 524q12 -182 57 -245 q42 -56 114 -56h5q31 2 59.5 21.5t49 51.5t30.5 75q7 31 7 64q0 14 -1 28l-14 203q-6 98 -55 151q-46 49 -102 49h-9q-65 -6 -112 -65q-33 -49 -33 -179q0 -44 4 -98z" />
<glyph unicode="r" horiz-adv-x="754" d="M57 1018l273 26l18 -186q43 215 199 234h51l33 -291q-66 -6 -112 -26.5t-72.5 -60.5t-36.5 -104q-5 -33 -4 -74q0 -38 4 -83l43 -410l-287 -31z" />
<glyph unicode="s" horiz-adv-x="1087" d="M41 340l235 51q34 -126 200 -126q15 0 30 1q72 4 123 33q47 27 47 66v6q-2 69 -119 80q-307 20 -407 96q-84 78 -91 215q-1 11 -1 22q0 60 20 112q22 62 71.5 110.5t124 77t177.5 32.5q24 1 46 1q129 0 213 -49q98 -58 156 -194l-213 -69q-46 125 -185 125h-17 q-146 -6 -147 -92q0 -3 1 -7q0 -36 31 -57q26 -20 143 -26q86 -9 150.5 -18t109.5 -23q41 -13 75 -36.5t63 -56.5q51 -63 57 -174v-16q0 -148 -104 -244q-110 -100 -328 -110q-30 -2 -58 -2q-333 0 -403 272z" />
<glyph unicode="t" horiz-adv-x="799" d="M55 776l15 232l178 -13l45 297h258l-23 -317l217 -14l-16 -232l-217 14l-31 -426q-1 -16 -1 -30q0 -21 2 -37q3 -26 16.5 -40.5t40 -23t71.5 -12.5q21 0 44.5 -1t50.5 -1l-17 -219q-105 -6 -161 -6h-25q-187 12 -260 86q-62 67 -62 212q0 24 2 50l33 471z" />
<glyph unicode="u" horiz-adv-x="1053" d="M59 428l33 659l289 -16l-35 -657v-14q0 -128 107 -130q7 0 13 -1q49 0 88 28q44 31 54 68q8 18 13.5 48.5t7.5 78.5l28 565l297 -15l-53 -1009l-274 14l8 172q-78 -175 -284 -175q-11 0 -23 1q-84 8 -137.5 31.5t-84 67.5t-40.5 114q-8 51 -8 117q0 25 1 53z" />
<glyph unicode="v" horiz-adv-x="997" d="M45 1026l305 33l260 -617l129 658l222 22l-240 -1040l-229 -25z" />
<glyph unicode="w" horiz-adv-x="1477" d="M-78 1006l400 -977l249 20l101 662l217 -633l262 24l215 1031l-229 -21l-115 -633l-205 606l-266 -24l-100 -627l-220 600z" />
<glyph unicode="x" horiz-adv-x="1012" d="M-72 86l252 -41l256 311l156 -376l334 -54l-250 590l360 416l-254 41l-198 -246l-119 295l-336 53l213 -506z" />
<glyph unicode="y" horiz-adv-x="963" d="M27 -340l16 227q78 -18 145 -24q16 -1 29 -1q25 0 43 4q29 7 47.5 22.5t30.5 38t22 50.5l-294 1031l311 -23l151 -612l230 585l215 -14l-381 -944q-33 -78 -59.5 -133t-49.5 -90q-43 -72 -116 -109q-63 -30 -152 -30q-22 0 -45 2q-33 2 -67.5 7t-75.5 13z" />
<glyph unicode="z" horiz-adv-x="952" d="M47 1012l733 78l21 -187l-383 -649l467 49l22 -215l-790 -84l-23 217l381 633l-405 -43z" />
<glyph unicode="{" horiz-adv-x="600" d="M2 582l16 -109q58 -2 90.5 -31.5t43.5 -113.5l53 -367q20 -147 82.5 -200.5t185.5 -36.5q12 0 43 8q29 6 51.5 9t38.5 5l-16 117l-37 -4q-29 -4 -46.5 -2t-27.5 15t-15 37.5t-11 67.5l-52 355q-24 174 -153 219q39 31 59.5 63.5t27.5 64.5t6 63.5t-5 62.5l-51 358 q-13 88 -0.5 110.5t73.5 33.5l29 4l-16 116q-23 -4 -46.5 -6t-45.5 -4q-17 -2 -28 -3t-15 -1q-123 -16 -169.5 -86t-23.5 -217l51 -369q19 -129 -92 -159z" />
<glyph unicode="|" horiz-adv-x="1024" d="M371 -341v1706h283v-1706h-283z" />
<glyph unicode="}" horiz-adv-x="601" d="M83 -219l31 -1q60 0 75 20.5t15 111.5v362q0 61 19 125t104 113q-123 64 -123 239v361q0 84 -12.5 108t-71.5 24l-37 -1v118q30 0 93 3q34 2 43 2q132 0 183 -66t51 -207v-372q0 -97 36.5 -128t76.5 -36v-109q-113 -16 -113 -144v-373q0 -150 -56 -211.5t-179 -61.5 q-8 0 -42 2q-47 2 -93 3v118z" />
<glyph unicode="~" d="M102 578q65 165 137 226.5t175 61.5q68 0 214 -54q128 -47 173 -47q87 0 142 105l156 -96q-117 -278 -326 -278q-52 0 -204 54q-134 47 -171 47q-88 0 -144 -123z" />
<glyph unicode="&#xa2;" d="M167 695q0 211 107.5 345t283.5 149v212h161v-212q306 -43 357 -364l-264 -16q-23 178 -165 178q-182 0 -182 -305q0 -121 45.5 -194t136.5 -73q148 0 165 175l259 -20q-43 -309 -352 -365v-260h-161v260q-134 20 -220.5 93t-128.5 174.5t-42 222.5z" />
<glyph unicode="&#xa3;" horiz-adv-x="1154" d="M111 623v210h158q-15 92 -15 144q0 194 119 301.5t314 107.5q301 0 395 -259l-256 -102q-32 131 -136 131q-49 0 -88.5 -36t-39.5 -122q0 -43 19 -165h224v-210h-200l-21 -368h205l250 -3l-1 -254l-237 2h-651v255h89q109 0 60 368h-188z" />
<glyph unicode="&#xad;" horiz-adv-x="526" d="M68 408l475 -52l22 217l-475 50z" />
<glyph unicode="&#x2000;" horiz-adv-x="758" />
<glyph unicode="&#x2001;" horiz-adv-x="1516" />
<glyph unicode="&#x2002;" horiz-adv-x="758" />
<glyph unicode="&#x2003;" horiz-adv-x="1516" />
<glyph unicode="&#x2004;" horiz-adv-x="505" />
<glyph unicode="&#x2005;" horiz-adv-x="379" />
<glyph unicode="&#x2006;" horiz-adv-x="252" />
<glyph unicode="&#x2007;" horiz-adv-x="252" />
<glyph unicode="&#x2008;" horiz-adv-x="189" />
<glyph unicode="&#x2009;" horiz-adv-x="303" />
<glyph unicode="&#x200a;" horiz-adv-x="84" />
<glyph unicode="&#x2010;" horiz-adv-x="526" d="M68 408l475 -52l22 217l-475 50z" />
<glyph unicode="&#x2011;" horiz-adv-x="526" d="M68 408l475 -52l22 217l-475 50z" />
<glyph unicode="&#x2012;" horiz-adv-x="526" d="M68 408l475 -52l22 217l-475 50z" />
<glyph unicode="&#x2013;" horiz-adv-x="1053" d="M68 408l979 -52l45 217l-979 50z" />
<glyph unicode="&#x2014;" horiz-adv-x="2077" d="M68 408l1957 -52l91 217l-1957 50z" />
<glyph unicode="&#x202f;" horiz-adv-x="303" />
<glyph unicode="&#x205f;" horiz-adv-x="379" />
<glyph unicode="&#x25fc;" horiz-adv-x="1075" d="M0 0v1075h1075v-1075h-1075z" />
</font>
</defs>
</svg>
